<svg xmlns="http://www.w3.org/2000/svg" xmlns:xlink="http://www.w3.org/1999/xlink" version="1.1" style="" xml:space="preserve" width="192.1386867817696" height="165.6277374955764"><rect id="backgroundrect" width="100%" height="100%" x="0" y="0" fill="none" stroke="none" class="" style=""/>
















<g class="currentLayer" style=""><title>Layer 1</title><g id="svg_1" class="" transform="rotate(44.52105712890625 93.95669555664064,46.87723159790039) ">
	<g id="svg_2">
		<path d="M147.14574172246978,33.036128265041015 l2.9301806743012375,-2.8889285243541813 c10.818684717746741,-10.666375336922345 10.820942949127863,-27.931669014926022 0,-38.599281262502736 c-10.81843380314884,-10.667117483314971 -28.329763590739475,-10.66810701183847 -39.15045562526944,0 l-2.930682503497042,2.8894232886159292 c-0.8202398205421086,-0.8086921858292353 -5.271966616521949,-6.31665532975335 -9.667237627973803,-1.9854889823999522 L40.006964820439606,49.9481602601557 c-2.113453658129759,2.083947070488064 -2.112199085140248,5.464423888890175 0,7.546886666592992 l2.0148442211542164,1.9869732751852003 l-4.1845027492140545,4.1253444144656894 c-10.818684717746741,10.666870101184095 -10.820441119932058,27.931421632795146 0,38.599281262502736 c10.819186546942548,10.666870101184095 28.330265419935273,10.66810701183847 39.150706539867336,0 l4.184251834616154,-4.1253444144656894 l2.0148442211542164,1.9864785109234513 c2.113453658129759,2.083947070488064 5.54270346765836,2.0824627777028155 7.6541498090049025,0 l58.3175708444163,-57.49977082558785 c2.113453658129759,-2.083947070488064 2.113453658129759,-5.46244483184318 -0.0002509145979021455,-7.5463919023312425 L147.14574172246978,33.036128265041015 zM69.3336121086443,94.65951183017845 c-6.587762767920791,6.495759992506597 -17.25238592255562,6.496996903160971 -23.841905092661722,0 c-6.588766426312399,-6.495512610375723 -6.589017340910302,-17.009005790417532 0,-23.506250075709378 l4.184251834616154,-4.1253444144656894 c0.484265173951138,0.47744751258807727 10.864853003760738,10.711893649003283 23.841905092661722,23.506250075709378 L69.3336121086443,94.65951183017845 zM71.91727972324267,73.86259085180825 l-5.331182461626853,-5.256622898955468 l50.66618109598833,-49.9496681912935 l5.3279205718541265,5.253406931254098 C120.34956815410823,26.109428600550785 74.13310653731651,71.6779592540542 71.91727972324267,73.86259085180825 zM139.49159191346484,25.489488980578912 c-2.1405524347031912,-2.1104169584916512 -21.679774002538952,-21.374558253962505 -23.841905092661722,-23.506250075709378 l2.9301806743012375,-2.8889285243541813 c6.588515511714497,-6.495759992506597 17.25238592255562,-6.496996903160971 23.841905092661722,0 c6.588515511714497,6.495265228244847 6.589770084704008,17.009500554679285 0,23.506250075709378 L139.49159191346484,25.489488980578912 z" id="svg_3"/>
	</g>
</g><g id="svg_4">
</g><g id="svg_5">
</g><g id="svg_6">
</g><g id="svg_7">
</g><g id="svg_8">
</g><g id="svg_9">
</g><g id="svg_10">
</g><g id="svg_11">
</g><g id="svg_12">
</g><g id="svg_13">
</g><g id="svg_14">
</g><g id="svg_15">
</g><g id="svg_16">
</g><g id="svg_17">
</g><g id="svg_18">
</g></g></svg>